<?xml version="1.0" encoding="UTF-8"?>
<svg data-bbox="57.998 20 84.002 160" viewBox="0 0 200 200" height="200" width="200" xmlns="http://www.w3.org/2000/svg" data-type="color">
    <g>
        <path fill="#a47864" d="M85.141 104.26H142v-8.518H85.149l-.009-.001c-1.261 0-1.685-.88-1.825-1.404a2.3 2.3 0 0 1-.075-.464c-.028-.523.136-1.187.953-1.659l33.593-19.453q.049-.028.104-.063l15.553-9.003-4.247-7.377-15.628 9.047-.104.063-33.508 19.403s-.007.002-.009.004c-1.089.631-1.896.083-2.279-.302-.328-.328-.768-.966-.501-1.826.046-.147.107-.299.198-.459L96.712 48.64l.068-.114 9.02-15.675-7.356-4.258-8.972 15.59-.068.113L70.01 77.987l-.001.001c-.628 1.091-1.597 1.02-2.117.88-.523-.141-1.401-.565-1.401-1.831V20h-8.493v160h8.493v-57.028c0-1.269.876-1.693 1.397-1.833.527-.141 1.492-.21 2.12.881l.001.002 28.434 49.386 7.356-4.26-28.433-49.383-.002-.004c-.393-.684-.327-1.256-.128-1.683.119-.256.286-.459.429-.603.383-.384 1.188-.934 2.28-.302l49.25 28.519 4.247-7.377-49.241-28.514-.009-.006c-.817-.473-.981-1.139-.953-1.664a2.3 2.3 0 0 1 .075-.465c.141-.526.564-1.408 1.825-1.408Z" data-color="1"/>
    </g>
</svg>
