<svg xmlns="http://www.w3.org/2000/svg" viewBox="0 0 100 100" width="100" height="100">
  <rect width="100" height="100" rx="20" fill="#ff69b4" />
  <path d="M35 35 L65 35 C65 35, 63 68, 50 68 C37 68, 35 35, 35 35 Z" fill="#ffffff" />
  <path d="M63 42 C72 42, 72 58, 62 58" stroke="#ffffff" stroke-width="6" stroke-linecap="round" fill="none" />
  <path d="M48 20 C49 16, 47 13, 48 10" stroke="#ffd700" stroke-width="2.5" stroke-linecap="round" fill="none" />
  <path d="M52 20 C53 16, 51 13, 52 10" stroke="#ffd700" stroke-width="2.5" stroke-linecap="round" fill="none" />
  <path d="M50 45 L48 48 L44 48 L47 51 L45 55 L50 52 L55 55 L53 51 L56 48 L52 48 Z" fill="#ff69b4" />
</svg>
